<?xml version="1.0" encoding="utf-8"?>
<!-- Generator: Adobe Illustrator 19.2.1, SVG Export Plug-In . SVG Version: 6.00 Build 0)  -->
<svg version="1.1" id="Layer_1" xmlns="http://www.w3.org/2000/svg" xmlns:xlink="http://www.w3.org/1999/xlink" x="0px" y="0px"
	 viewBox="0 0 100 100" style="enable-background:new 0 0 100 100;" xml:space="preserve">
<style type="text/css">
	.st0{fill:#DFE1E2;}
	.st1{clip-path:url(#SVGID_2_);}
	.st2{clip-path:url(#SVGID_6_);}
	.st3{clip-path:url(#SVGID_7_);}
	.st4{opacity:0.5;clip-path:url(#SVGID_8_);fill:#FFFFFF;enable-background:new    ;}
	.st5{opacity:0.25;clip-path:url(#SVGID_8_);fill:#FFFFFF;enable-background:new    ;}
	.st6{clip-path:url(#SVGID_10_);}
	.st7{fill:#E94B35;}
	.st8{fill:#C23824;}
	.st9{opacity:0.3;fill:#FFFFFF;enable-background:new    ;}
	.st10{fill:#FFFFFF;}
	.st11{fill:#F4F5F6;}
	.st12{fill:#D4D8D8;}
</style>
<circle class="st0" cx="50" cy="50" r="50"/>
<g>
	<defs>
		<path id="SVGID_1_" d="M100,50c0,27.6-22.4,50-50,50C22.4,100,0,77.6,0,50S22.4,0,50,0h50V50z"/>
	</defs>
	<clipPath id="SVGID_2_">
		<use xlink:href="#SVGID_1_"  style="overflow:visible;"/>
	</clipPath>
	<g class="st1">
		<g>
			<defs>
				<path id="SVGID_3_" d="M100,50c0,27.6-22.4,50-50,50C22.4,100,0,77.6,0,50S22.4,0,50,0h50V50z"/>
			</defs>
			<defs>
				<path id="SVGID_4_" d="M100,50c0,27.6-22.4,50-50,50C22.4,100,0,77.6,0,50S22.4,0,50,0h50V50z"/>
			</defs>
			<defs>
				<path id="SVGID_5_" d="M100,50c0,27.6-22.4,50-50,50C22.4,100,0,77.6,0,50S22.4,0,50,0h50V50z"/>
			</defs>
			<clipPath id="SVGID_6_">
				<use xlink:href="#SVGID_3_"  style="overflow:visible;"/>
			</clipPath>
			<clipPath id="SVGID_7_" class="st2">
				<use xlink:href="#SVGID_4_"  style="overflow:visible;"/>
			</clipPath>
			<clipPath id="SVGID_8_" class="st3">
				<use xlink:href="#SVGID_5_"  style="overflow:visible;"/>
			</clipPath>
			<path class="st4" d="M31,19.5c2.5-0.5,4.1-2,4.5-4.5c0.5,2.5,2,4,4.5,4.5c-2.5,0.5-4,2-4.5,4.5C35.1,21.5,33.5,20,31,19.5z"/>
			<path class="st5" d="M71,74.5c2.6-0.4,4.1-1.9,4.5-4.5c0.4,2.6,2,4.1,4.5,4.5c-2.5,0.5-4.1,1.9-4.5,4.5
				C75.1,76.4,73.6,75,71,74.5z"/>
			<path class="st5" d="M11,64.5c2.6-0.4,4.1-2,4.5-4.5c0.4,2.5,2,4.1,4.5,4.5c-2.5,0.5-4.1,1.9-4.5,4.5C15.1,66.4,13.6,65,11,64.5z
				"/>
		</g>
		<g>
			<defs>
				<path id="SVGID_9_" d="M100,50c0,27.6-22.4,50-50,50C22.4,100,0,77.6,0,50S22.4,0,50,0h50V50z"/>
			</defs>
			<clipPath id="SVGID_10_">
				<use xlink:href="#SVGID_9_"  style="overflow:visible;"/>
			</clipPath>
			<g class="st6">
				<path class="st7" d="M100,0.1c-0.2,0-0.1,0.1-0.1-0.1c-23.3,3-36.5,12.3-44,22c-0.3,0.3-0.5,0.7-0.8,1l0,0
					C47,34.2,46.1,45.8,46,49h-1l-1,3l4,4l3-1v-1c1.2,0,3.7-0.1,7.1-0.8l0,0C58.8,53,59,53.3,59,57v9c0,1.8,0.9,2.5,1.9,1.5
					c2.4-2.4,3-3,8.5-8.5c4.2-4.2,4.7-6.6,3-11.1C84,41.4,96.4,27.9,100,0.1z"/>
				<path class="st8" d="M100,0c-0.6,5-1.6,9.6-2.7,13.7c-1-2-2.6-4.4-4.5-6.3C90.6,5.3,88,3.8,86,2.8C92,1.1,96.8,0.4,100,0z"/>
				<path class="st9" d="M72.4,47.9c1.7,4.5,1.3,6.8-2.9,11c-0.8,0.8-7.8,7.9-8.6,8.6c-1,1-1.9,0.3-1.9-1.5v-0.7
					c3-3,9.7-8.9,11-11.3c0.8-1.4,0.4-3.7,0-5c-3.3,1.8-11.5,4.1-11.9,4.2c-3.2,0.6-5.6,0.7-7.1,0.8v-0.7c0,0,30-9.7,49-53.3
					C96.4,28,84,41.4,72.4,47.9z"/>
				<path class="st10" d="M77.5,28c-3.6,0-6.5-2.9-6.5-6.5s2.9-6.5,6.5-6.5s6.5,2.9,6.5,6.5S81.1,28,77.5,28z"/>
				<path class="st8" d="M77.5,16c3,0,5.5,2.5,5.5,5.5S80.5,27,77.5,27S72,24.5,72,21.5S74.5,16,77.5,16 M77.5,14
					c-4.1,0-7.5,3.4-7.5,7.5s3.4,7.5,7.5,7.5s7.5-3.4,7.5-7.5S81.6,14,77.5,14z"/>
				<path class="st11" d="M44,52l4,4L13,92l-6-6L44,52z"/>
				<path class="st12" d="M44,52l1.9,1.9L7.5,91.5l-3-3.2L44,52z"/>
				<path class="st8" d="M48,56l-4-4l1-3h2l4,4v2L48,56z M52,28c-1.7-0.7-2-1-4-1s-4.2,1.4-6.9,4.1c-4.3,4.3-4.8,4.8-8.5,8.5
					C31.4,40.8,33.3,41,36,41c5.2,0,9.3-0.1,10.8,1.4C48.8,44.5,52,28,52,28z"/>
			</g>
		</g>
	</g>
</g>
</svg>
